<mxfile host="app.diagrams.net" modified="2023-06-03T19:12:29.114Z" agent="Mozilla/5.0 (X11; Ubuntu; Linux x86_64; rv:109.0) Gecko/20100101 Firefox/113.0" etag="Hez_M8l_GPeQJxvPLBqx" version="21.2.6" type="google">
  <diagram id="C5RBs43oDa-KdzZeNtuy" name="Page-1">
    <mxGraphModel grid="1" page="1" gridSize="10" guides="1" tooltips="1" connect="1" arrows="1" fold="1" pageScale="1" pageWidth="827" pageHeight="1169" math="1" shadow="0">
      <root>
        <mxCell id="WIyWlLk6GJQsqaUBKTNV-0" />
        <mxCell id="WIyWlLk6GJQsqaUBKTNV-1" parent="WIyWlLk6GJQsqaUBKTNV-0" />
        <mxCell id="WIyWlLk6GJQsqaUBKTNV-11" value="&lt;div&gt;Generated Images&lt;/div&gt;" style="rounded=0;whiteSpace=wrap;html=1;fontSize=13;glass=0;strokeWidth=1;shadow=0;fillColor=#f5f5f5;fontColor=#333333;strokeColor=#666666;" vertex="1" parent="WIyWlLk6GJQsqaUBKTNV-1">
          <mxGeometry x="251" y="292.5" width="129" height="45" as="geometry" />
        </mxCell>
        <mxCell id="WIyWlLk6GJQsqaUBKTNV-12" value="&lt;div style=&quot;font-size: 13px;&quot;&gt;Real Images&lt;/div&gt;" style="rounded=0;whiteSpace=wrap;html=1;fontSize=13;glass=0;strokeWidth=1;shadow=0;fillColor=#f5f5f5;fontColor=#333333;strokeColor=#666666;" vertex="1" parent="WIyWlLk6GJQsqaUBKTNV-1">
          <mxGeometry x="251" y="172" width="129" height="48" as="geometry" />
        </mxCell>
        <mxCell id="j_gQq1CnqC4lyDs7WOLW-15" value="&lt;b&gt;Siamese Network&lt;/b&gt;" style="rounded=0;whiteSpace=wrap;html=1;labelPosition=center;verticalLabelPosition=top;align=center;verticalAlign=bottom;dashed=1;fillColor=none;" vertex="1" parent="WIyWlLk6GJQsqaUBKTNV-1">
          <mxGeometry x="440" y="140" width="330" height="220" as="geometry" />
        </mxCell>
        <mxCell id="j_gQq1CnqC4lyDs7WOLW-32" value="(randomly sample)" style="edgeStyle=orthogonalEdgeStyle;rounded=0;orthogonalLoop=1;jettySize=auto;html=1;exitX=1;exitY=0.383;exitDx=0;exitDy=0;entryX=0;entryY=0.5;entryDx=0;entryDy=0;exitPerimeter=0;" edge="1" parent="WIyWlLk6GJQsqaUBKTNV-1" source="WIyWlLk6GJQsqaUBKTNV-12" target="j_gQq1CnqC4lyDs7WOLW-17">
          <mxGeometry relative="1" as="geometry" />
        </mxCell>
        <mxCell id="roJIK74ke_mvJ6h5Deoz-3" value="Feature Vectors" style="edgeStyle=orthogonalEdgeStyle;rounded=0;orthogonalLoop=1;jettySize=auto;html=1;exitX=1;exitY=0.5;exitDx=0;exitDy=0;entryX=0.5;entryY=0;entryDx=0;entryDy=0;" edge="1" parent="WIyWlLk6GJQsqaUBKTNV-1" source="j_gQq1CnqC4lyDs7WOLW-17" target="roJIK74ke_mvJ6h5Deoz-0">
          <mxGeometry relative="1" as="geometry" />
        </mxCell>
        <mxCell id="j_gQq1CnqC4lyDs7WOLW-17" value="&lt;div style=&quot;font-size: 13px;&quot;&gt;Pretrained&lt;br style=&quot;font-size: 13px;&quot;&gt;&lt;/div&gt;&lt;div style=&quot;font-size: 13px;&quot;&gt;&lt;b style=&quot;font-size: 13px;&quot;&gt;ResNet Backbone&lt;/b&gt;&lt;br style=&quot;font-size: 13px;&quot;&gt;&lt;/div&gt;" style="rounded=1;whiteSpace=wrap;html=1;fontSize=13;glass=0;strokeWidth=1;shadow=0;fillColor=#dae8fc;strokeColor=#6c8ebf;" vertex="1" parent="WIyWlLk6GJQsqaUBKTNV-1">
          <mxGeometry x="500" y="160" width="120" height="70" as="geometry" />
        </mxCell>
        <mxCell id="j_gQq1CnqC4lyDs7WOLW-38" value="Feature Vectors" style="edgeStyle=orthogonalEdgeStyle;rounded=0;orthogonalLoop=1;jettySize=auto;html=1;exitX=1;exitY=0.25;exitDx=0;exitDy=0;entryX=0.5;entryY=1;entryDx=0;entryDy=0;fontSize=12;" edge="1" parent="WIyWlLk6GJQsqaUBKTNV-1" source="j_gQq1CnqC4lyDs7WOLW-18" target="roJIK74ke_mvJ6h5Deoz-0">
          <mxGeometry relative="1" as="geometry">
            <mxPoint x="1055" y="280" as="targetPoint" />
          </mxGeometry>
        </mxCell>
        <mxCell id="j_gQq1CnqC4lyDs7WOLW-18" value="&lt;div style=&quot;font-size: 13px;&quot;&gt;Pretrained&lt;br style=&quot;font-size: 13px;&quot;&gt;&lt;/div&gt;&lt;div style=&quot;font-size: 13px;&quot;&gt;&lt;b style=&quot;font-size: 13px;&quot;&gt;ResNet Backbone&lt;/b&gt;&lt;br style=&quot;font-size: 13px;&quot;&gt;&lt;/div&gt;" style="rounded=1;whiteSpace=wrap;html=1;fontSize=13;glass=0;strokeWidth=1;shadow=0;fillColor=#dae8fc;strokeColor=#6c8ebf;" vertex="1" parent="WIyWlLk6GJQsqaUBKTNV-1">
          <mxGeometry x="500" y="280" width="120" height="70" as="geometry" />
        </mxCell>
        <mxCell id="j_gQq1CnqC4lyDs7WOLW-35" value="&lt;div&gt;&lt;font style=&quot;font-size: 14px;&quot;&gt;Fingerprint Similarity&lt;/font&gt;&lt;/div&gt;&lt;div&gt;&lt;font style=&quot;font-size: 14px;&quot;&gt;Score `\in [0,1]`&lt;br&gt;&lt;/font&gt;&lt;/div&gt;" style="text;html=1;align=center;verticalAlign=middle;resizable=0;points=[];autosize=1;strokeColor=#82b366;fillColor=#d5e8d4;rounded=0;" vertex="1" parent="WIyWlLk6GJQsqaUBKTNV-1">
          <mxGeometry x="1000" y="217" width="150" height="50" as="geometry" />
        </mxCell>
        <mxCell id="lTwEMDCqhxQaogHHauij-1" style="edgeStyle=orthogonalEdgeStyle;rounded=0;orthogonalLoop=1;jettySize=auto;html=1;exitX=1;exitY=0.5;exitDx=0;exitDy=0;entryX=0;entryY=0.48;entryDx=0;entryDy=0;entryPerimeter=0;" edge="1" parent="WIyWlLk6GJQsqaUBKTNV-1" source="lTwEMDCqhxQaogHHauij-0" target="j_gQq1CnqC4lyDs7WOLW-35">
          <mxGeometry relative="1" as="geometry">
            <mxPoint x="1200" y="320" as="targetPoint" />
          </mxGeometry>
        </mxCell>
        <mxCell id="lTwEMDCqhxQaogHHauij-0" value="&lt;div style=&quot;font-size: 13px;&quot;&gt;&lt;b style=&quot;font-size: 13px;&quot;&gt;Relational Module&lt;/b&gt;:&lt;/div&gt;&lt;div style=&quot;font-size: 13px;&quot;&gt;Tailored Distance Metric&lt;br style=&quot;font-size: 13px;&quot;&gt;&lt;/div&gt;" style="rounded=1;whiteSpace=wrap;html=1;fontSize=13;glass=0;strokeWidth=1;shadow=0;fillColor=#dae8fc;strokeColor=#6c8ebf;" vertex="1" parent="WIyWlLk6GJQsqaUBKTNV-1">
          <mxGeometry x="800" y="201" width="150" height="80" as="geometry" />
        </mxCell>
        <mxCell id="roJIK74ke_mvJ6h5Deoz-1" style="edgeStyle=orthogonalEdgeStyle;rounded=0;orthogonalLoop=1;jettySize=auto;html=1;exitX=1;exitY=0.5;exitDx=0;exitDy=0;entryX=0;entryY=0.5;entryDx=0;entryDy=0;" edge="1" parent="WIyWlLk6GJQsqaUBKTNV-1" source="roJIK74ke_mvJ6h5Deoz-0" target="lTwEMDCqhxQaogHHauij-0">
          <mxGeometry relative="1" as="geometry" />
        </mxCell>
        <mxCell id="roJIK74ke_mvJ6h5Deoz-0" value="Concatenate" style="shape=image;html=1;verticalAlign=middle;verticalLabelPosition=middle;labelBackgroundColor=#ffffff;imageAspect=0;aspect=fixed;image=https://cdn0.iconfinder.com/data/icons/bold-purple-free-samples/32/Add_Circle_Plus_Download-128.png;labelPosition=left;align=right;" vertex="1" parent="WIyWlLk6GJQsqaUBKTNV-1">
          <mxGeometry x="730" y="226" width="30" height="30" as="geometry" />
        </mxCell>
        <mxCell id="roJIK74ke_mvJ6h5Deoz-2" value="(randomly sample)" style="edgeStyle=orthogonalEdgeStyle;rounded=0;orthogonalLoop=1;jettySize=auto;html=1;exitX=1;exitY=0.5;exitDx=0;exitDy=0;entryX=0;entryY=0.5;entryDx=0;entryDy=0;" edge="1" parent="WIyWlLk6GJQsqaUBKTNV-1" source="WIyWlLk6GJQsqaUBKTNV-11" target="j_gQq1CnqC4lyDs7WOLW-18">
          <mxGeometry relative="1" as="geometry" />
        </mxCell>
      </root>
    </mxGraphModel>
  </diagram>
</mxfile>
